<?xml version="1.0" encoding="UTF-8"?><svg id="Capa_1" xmlns="http://www.w3.org/2000/svg" viewBox="0 0 1000 1000"><defs><style>.cls-1{opacity:.6;}.cls-1,.cls-2,.cls-3,.cls-4,.cls-5,.cls-6,.cls-7{stroke-width:0px;}.cls-1,.cls-2,.cls-4,.cls-5,.cls-6,.cls-7{fill:#fff;}.cls-1,.cls-2,.cls-4,.cls-6,.cls-7{fill-rule:evenodd;}.cls-2{opacity:.4;}.cls-8{opacity:.9;}.cls-3{fill:#bde384;}.cls-4{opacity:.8;}.cls-7,.cls-9{opacity:.3;}</style></defs><rect class="cls-3" x="-10" y="-10" width="1020" height="1020"/><path class="cls-5" d="M168.9,640.51c-9.07,0-17.5,1.54-25.18,4.52-7.68,2.98-14.24,7.35-19.73,13.08-5.54,5.72-9.82,12.8-12.89,21.22-3.12,8.38-4.65,18.01-4.65,28.81s1.4,20.2,4.24,28.3c2.84,8.14,6.84,14.94,12.15,20.38,5.26,5.44,11.68,9.59,19.27,12.33,7.59,2.79,16.19,4.19,25.83,4.19,6.94,0,13.96-.56,21.18-1.63,7.17-1.12,13.87-2.7,20.15-4.79v28.76c-6.38,1.82-13.22,3.26-20.57,4.33-7.35,1.02-14.98,1.54-22.9,1.54-15.45,0-29.04-2.19-40.77-6.61-11.73-4.42-21.55-10.61-29.41-18.66-7.87-8.05-13.78-17.68-17.73-28.9-3.96-11.26-5.91-23.64-5.91-37.18s2.09-26.81,6.33-38.72c4.24-11.91,10.33-22.2,18.29-30.95,7.96-8.7,17.92-15.59,29.83-20.57,11.96-5.03,25.5-7.54,40.58-7.63,7.73,0,15.03.51,21.97,1.58,6.89,1.02,13.12,2.51,18.66,4.42v28.34c-7.26-2.28-14.05-3.86-20.34-4.75-6.24-.93-12.38-1.4-18.38-1.4"/><path class="cls-5" d="M233.52,600.72h33.93v35.05h-33.93v-35.05ZM234.31,666.01h32.35v132.13h-32.35v-132.13Z"/><path class="cls-5" d="M375.67,691.66h-2.7c-9.91,0-18.62,1.49-26.11,4.42-7.49,2.98-13.31,7.49-17.41,13.59v88.47h-32.3v-132.13h26.71l3.03,18.43h.51c3.82-6.75,9.07-12.05,15.78-15.92,6.66-3.86,14.71-5.77,24.06-5.77,3.26,0,6.1.19,8.42.56v28.34Z"/><polygon class="cls-5" points="390.39 600.72 422.73 600.72 422.73 719.58 423.39 719.58 473.7 666.01 513.67 666.01 455.68 728.05 514.04 798.14 474.95 798.14 423.25 736.66 422.73 736.66 422.73 798.14 390.39 798.14 390.39 600.72"/><path class="cls-5" d="M585.78,801.54c-13.26,0-24.29-2.23-32.99-6.75-8.75-4.47-15.31-10.56-19.78-18.2-2.37-4.1-4.09-8.56-5.26-13.5-1.12-4.89-1.67-10.38-1.67-16.38v-80.7h32.3v77.3c0,4.47.33,8.28.93,11.54.65,3.21,1.63,6,2.88,8.38,2.19,4,5.26,6.98,9.26,8.93,4,1.95,8.8,2.93,14.33,2.93,5.82,0,10.8-1.12,14.94-3.26,4.1-2.19,7.21-5.54,9.31-9.96,2.09-4.28,3.17-10.24,3.17-17.87v-78h32.3v80.7c0,10.75-1.86,19.78-5.59,27.18-2.09,4.14-4.79,7.96-8.1,11.36-3.35,3.4-7.26,6.33-11.73,8.75-4.51,2.37-9.59,4.24-15.31,5.59-5.68,1.3-12.01,1.95-18.99,1.95"/><path class="cls-5" d="M673.85,600.72h33.93v35.05h-33.93v-35.05ZM674.64,666.01h32.35v132.13h-32.35v-132.13Z"/><path class="cls-5" d="M818.19,798c-3.63,1.12-7.96,1.96-13.03,2.61-5.03.61-9.73.93-14.1.93-11.08,0-20.15-1.77-27.18-5.35-7.07-3.63-12.06-8.75-14.94-15.5-2.09-4.84-3.12-11.35-3.12-19.64v-68.46h-24.71v-26.57h24.71v-36.95h32.3v36.95h38.16v26.57h-38.16v64.22c0,5.12.79,8.89,2.33,11.31,2.7,4.19,8.14,6.28,16.2,6.28,3.72,0,7.45-.28,11.12-.88,3.68-.61,7.17-1.35,10.42-2.23v26.71Z"/><path class="cls-5" d="M896.16,759.84c0-2.84-.79-5.17-2.42-6.98-1.58-1.82-3.68-3.31-6.33-4.56-2.61-1.21-5.63-2.28-9.08-3.21-3.4-.88-6.98-1.82-10.7-2.7-4.7-1.3-9.26-2.75-13.64-4.42-4.33-1.72-8.19-3.91-11.49-6.66-3.31-2.7-5.96-6.14-7.91-10.29-1.95-4.14-2.93-9.21-2.93-15.17,0-7.4,1.3-13.78,3.95-19.17,2.65-5.4,6.19-9.87,10.7-13.45,4.51-3.54,9.73-6.14,15.68-7.91,5.96-1.72,12.24-2.56,18.9-2.56,8.05,0,15.64.65,22.76,1.95,7.07,1.35,13.49,3.02,19.22,5.12v26.34c-3.02-1.03-6.14-1.96-9.49-2.79-3.3-.88-6.65-1.63-10.05-2.28-3.44-.61-6.79-1.16-10.19-1.58-3.35-.37-6.52-.6-9.54-.6-3.81,0-7.03.37-9.68,1.11-2.61.7-4.75,1.68-6.42,2.93-1.63,1.21-2.79,2.61-3.54,4.24-.7,1.58-1.07,3.21-1.07,4.93,0,3.02.79,5.49,2.37,7.4,1.58,1.91,3.82,3.44,6.61,4.61,2.84,1.21,5.77,2.19,8.89,2.93,3.07.79,6.1,1.54,8.98,2.28,4.56,1.07,9.08,2.37,13.64,3.96,4.56,1.54,8.66,3.68,12.29,6.47,3.63,2.75,6.61,6.33,8.93,10.75,2.28,4.42,3.45,10.05,3.45,16.85,0,7.45-1.4,13.96-4.24,19.5-2.79,5.54-6.75,10.15-11.77,13.82-5.03,3.68-11.08,6.42-18.15,8.19-7.03,1.77-14.8,2.65-23.22,2.65s-15.87-.65-22.57-1.95c-6.7-1.35-12.19-2.98-16.57-4.98v-26.06c7.07,2.65,13.64,4.42,19.64,5.4,6,.93,11.59,1.44,16.75,1.44,4,0,7.72-.33,11.17-.88,3.49-.61,6.47-1.54,8.93-2.79,2.51-1.3,4.52-2.89,5.96-4.84,1.44-1.96,2.19-4.33,2.19-7.03"/><g class="cls-8"><polygon class="cls-5" points="85.1 923.84 76.4 923.84 76.4 852.45 118.98 852.45 118.98 860.3 85.1 860.3 85.1 883.34 115.14 883.34 115.14 891.19 85.1 891.19 85.1 923.84"/></g><g class="cls-8"><path class="cls-5" d="M175.65,898.55c0,3.99-.56,7.61-1.71,10.89-1.13,3.28-2.75,6.07-4.83,8.4-2.08,2.33-4.59,4.13-7.56,5.43-2.95,1.27-6.25,1.91-9.91,1.91s-7.16-.64-10.13-1.91c-2.97-1.29-5.48-3.1-7.58-5.43-2.08-2.33-3.66-5.12-4.77-8.4-1.09-3.28-1.66-6.9-1.66-10.89s.58-7.67,1.71-10.93c1.15-3.28,2.75-6.08,4.83-8.43,2.08-2.35,4.61-4.17,7.58-5.45,2.97-1.27,6.28-1.91,9.96-1.91s7.09.64,10.07,1.91c2.99,1.28,5.52,3.1,7.58,5.45,2.08,2.35,3.66,5.15,4.75,8.43,1.11,3.26,1.66,6.92,1.66,10.93M167,898.55c0-3.13-.38-5.9-1.15-8.34-.76-2.44-1.82-4.5-3.19-6.19-1.38-1.69-3.01-2.97-4.9-3.84-1.88-.88-3.94-1.31-6.17-1.31s-4.32.44-6.19,1.31c-1.9.87-3.52,2.15-4.88,3.84-1.37,1.69-2.44,3.75-3.21,6.19-.76,2.44-1.15,5.21-1.15,8.34s.38,5.86,1.15,8.3c.77,2.44,1.84,4.48,3.22,6.16,1.38,1.67,3.02,2.95,4.92,3.82,1.88.88,3.93,1.31,6.19,1.31s4.28-.44,6.16-1.31c1.86-.87,3.48-2.15,4.86-3.82,1.37-1.68,2.42-3.72,3.19-6.16.77-2.44,1.15-5.21,1.15-8.3Z"/></g><g class="cls-8"><path class="cls-5" d="M216.52,879.88h-.64c-1.97,0-3.88.18-5.77.53-1.88.36-3.64.91-5.3,1.64-1.66.73-3.15,1.62-4.48,2.7-1.35,1.06-2.46,2.31-3.33,3.79v35.32h-8.29v-50.69h6.41l1.6,8.05h.16c.82-1.31,1.82-2.53,3.01-3.68,1.2-1.13,2.53-2.13,4.02-2.99,1.49-.86,3.13-1.53,4.92-2,1.78-.47,3.64-.71,5.61-.71.35,0,.71,0,1.09.02.36.02.69.04.98.07v7.96Z"/></g><g class="cls-8"><path class="cls-5" d="M249.7,917.98c2.75,0,5.25-.22,7.5-.67,2.26-.44,4.52-1.07,6.76-1.9v6.89c-1.82.89-4.06,1.58-6.74,2.11-2.66.51-5.52.76-8.58.76-3.62,0-7.03-.46-10.22-1.38-3.19-.93-5.97-2.42-8.36-4.48-2.39-2.06-4.26-4.75-5.63-8.09-1.37-3.31-2.06-7.34-2.06-12.04s.64-8.63,1.93-12.02c1.28-3.41,2.99-6.23,5.12-8.51,2.13-2.28,4.59-3.99,7.36-5.14,2.79-1.13,5.68-1.69,8.71-1.69,2.84,0,5.5.46,7.98,1.4,2.48.95,4.61,2.42,6.43,4.46,1.82,2.02,3.24,4.64,4.3,7.83,1.04,3.21,1.57,7.05,1.57,11.53v1.09c0,.31-.02,1-.05,2.06h-34.79c0,3.24.49,5.99,1.48,8.25.97,2.26,2.31,4.08,3.99,5.5,1.69,1.4,3.68,2.42,5.96,3.06,2.28.64,4.74.97,7.36.97M245.17,878.91c-1.88,0-3.63.38-5.24,1.13-1.62.75-3.04,1.75-4.24,3.04-1.22,1.28-2.19,2.79-2.93,4.5-.75,1.73-1.22,3.57-1.38,5.52h25.61c0-1.99-.25-3.84-.78-5.57-.51-1.71-1.27-3.22-2.26-4.5-1-1.29-2.22-2.29-3.68-3.02-1.46-.73-3.15-1.09-5.08-1.09Z"/></g><g class="cls-8"><path class="cls-5" d="M280.01,861.35v-9.23h8.71v9.23h-8.71ZM280.23,923.84v-50.69h8.27v50.69h-8.27Z"/></g><g class="cls-8"><path class="cls-5" d="M324.69,871.83c2.2.03,4.12.31,5.75.84,1.64.55,3.04,1.2,4.21,2,1.18.8,2.11,1.6,2.81,2.39.69.78,1.16,1.4,1.42,1.86h.22l1.69-5.76h6.25v53.68c0,3.92-.64,7.32-1.91,10.22-1.29,2.9-3.08,5.32-5.39,7.23-2.31,1.93-5.1,3.35-8.36,4.3-3.24.95-6.85,1.42-10.8,1.42-3.35,0-6.34-.31-8.96-.89-2.64-.58-4.7-1.29-6.19-2.11v-6.98c1.2.49,2.39.91,3.52,1.26,1.15.33,2.31.62,3.53.84,1.2.24,2.44.4,3.7.51,1.28.11,2.66.16,4.19.16,5.94,0,10.49-1.38,13.66-4.15,3.17-2.79,4.75-7.01,4.75-12.71v-6.78h-.16c-1.8,2-3.92,3.5-6.32,4.52-2.4,1-5.15,1.51-8.25,1.51-1.42,0-2.95-.16-4.59-.47-1.62-.33-3.26-.86-4.9-1.62-1.64-.77-3.21-1.79-4.7-3.04-1.49-1.28-2.81-2.86-3.95-4.75-1.13-1.91-2.04-4.15-2.75-6.76-.69-2.59-1.04-5.59-1.04-9.02,0-4.74.64-8.83,1.93-12.29,1.28-3.48,2.97-6.34,5.06-8.62,2.09-2.28,4.5-3.99,7.21-5.1,2.69-1.13,5.48-1.67,8.38-1.67M310.76,898.82c0,3.99.47,7.23,1.44,9.76.97,2.53,2.19,4.5,3.66,5.9,1.48,1.4,3.08,2.37,4.83,2.88,1.75.51,3.39.78,4.95.78,2.57,0,4.97-.53,7.21-1.55,2.24-1.04,4.21-2.44,5.92-4.22v-26.52c-.46-.64-1.11-1.37-1.91-2.19-.82-.82-1.78-1.57-2.86-2.28-1.09-.69-2.33-1.27-3.72-1.75-1.38-.49-2.9-.73-4.54-.73-2.46,0-4.61.49-6.48,1.48-1.86.96-3.43,2.33-4.7,4.08-1.26,1.75-2.2,3.82-2.84,6.26-.64,2.44-.97,5.14-.97,8.09Z"/></g><g class="cls-8"><path class="cls-5" d="M371.06,880.2h.16c.91-1.18,1.95-2.28,3.06-3.3,1.13-1,2.39-1.89,3.77-2.66,1.38-.76,2.9-1.37,4.55-1.78,1.66-.44,3.46-.64,5.43-.64,2.31,0,4.48.31,6.5.95,2.02.64,3.79,1.68,5.28,3.1,1.49,1.42,2.68,3.28,3.55,5.57.87,2.3,1.31,5.12,1.31,8.47v33.93h-8.27v-32.6c0-4.37-.86-7.52-2.55-9.45-1.67-1.91-4.15-2.88-7.38-2.88-2.86,0-5.61.8-8.29,2.39-2.66,1.57-4.95,3.75-6.87,6.52v36.03h-8.29v-50.69h6.41l1.6,7.05Z"/></g><g class="cls-8"><polygon class="cls-5" points="452.33 852.45 452.33 916 487.18 916 487.18 923.84 443.63 923.84 443.63 852.45 452.33 852.45"/></g><g class="cls-8"><path class="cls-5" d="M528.69,901.59c-1.53-.42-3.35-.84-5.45-1.22-2.09-.4-4.41-.6-6.94-.64-3.52,0-6.26.75-8.27,2.24-1.99,1.49-2.99,3.79-2.99,6.89,0,1.57.25,2.93.75,4.1.49,1.18,1.18,2.15,2.06,2.91.87.77,1.89,1.33,3.1,1.71,1.18.36,2.46.56,3.81.56,1.79,0,3.44-.27,4.97-.78,1.53-.51,2.88-1.13,4.08-1.84,1.18-.71,2.2-1.42,3.04-2.13.84-.71,1.44-1.28,1.84-1.66v-10.14ZM529.11,918.23h-.2c-.67.86-1.53,1.71-2.57,2.55-1.04.82-2.22,1.57-3.57,2.24-1.35.65-2.84,1.18-4.43,1.57-1.6.4-3.31.58-5.13.58-2.44,0-4.7-.36-6.74-1.09-2.06-.73-3.81-1.78-5.28-3.2-1.48-1.4-2.62-3.12-3.44-5.14-.82-2.04-1.24-4.33-1.24-6.88s.46-4.79,1.37-6.78c.91-2,2.19-3.68,3.83-5.08,1.62-1.39,3.59-2.44,5.88-3.19,2.29-.75,4.83-1.13,7.61-1.13,2.62.04,5.06.27,7.3.69,2.24.44,4.24.96,5.97,1.6h.22v-3.52c0-1.38-.09-2.62-.27-3.68-.16-1.08-.47-2.02-.91-2.84-.91-1.71-2.39-3.11-4.43-4.24-2.02-1.11-4.75-1.68-8.22-1.68-2.55,0-4.97.24-7.23.73-2.26.47-4.5,1.15-6.74,1.99v-6.92c.84-.44,1.86-.84,3.01-1.2,1.16-.38,2.37-.69,3.66-.96,1.28-.27,2.62-.47,4.04-.62,1.44-.14,2.86-.2,4.28-.2,5.12,0,9.31.89,12.57,2.71,3.24,1.82,5.59,4.21,7.01,7.19.53,1.15.91,2.41,1.15,3.77.24,1.37.35,2.88.35,4.52v33.82h-6.94l-.91-5.61Z"/></g><g class="cls-8"><path class="cls-5" d="M560.96,880.2h.16c.91-1.18,1.95-2.28,3.06-3.3,1.13-1,2.39-1.89,3.77-2.66,1.38-.76,2.9-1.37,4.55-1.78,1.66-.44,3.46-.64,5.43-.64,2.31,0,4.48.31,6.5.95,2.02.64,3.79,1.68,5.28,3.1,1.49,1.42,2.68,3.28,3.55,5.57.87,2.3,1.31,5.12,1.31,8.47v33.93h-8.27v-32.6c0-4.37-.86-7.52-2.55-9.45-1.67-1.91-4.15-2.88-7.38-2.88-2.86,0-5.61.8-8.29,2.39-2.66,1.57-4.95,3.75-6.87,6.52v36.03h-8.29v-50.69h6.41l1.6,7.05Z"/></g><g class="cls-8"><path class="cls-5" d="M630.23,871.83c2.2.03,4.12.31,5.75.84,1.64.55,3.04,1.2,4.21,2,1.18.8,2.11,1.6,2.81,2.39.69.78,1.16,1.4,1.42,1.86h.22l1.69-5.76h6.25v53.68c0,3.92-.64,7.32-1.91,10.22-1.29,2.9-3.08,5.32-5.39,7.23-2.31,1.93-5.1,3.35-8.36,4.3-3.24.95-6.85,1.42-10.8,1.42-3.35,0-6.34-.31-8.96-.89-2.64-.58-4.7-1.29-6.19-2.11v-6.98c1.2.49,2.39.91,3.52,1.26,1.15.33,2.31.62,3.53.84,1.2.24,2.44.4,3.7.51,1.28.11,2.66.16,4.19.16,5.94,0,10.49-1.38,13.66-4.15,3.17-2.79,4.75-7.01,4.75-12.71v-6.78h-.16c-1.8,2-3.92,3.5-6.32,4.52-2.4,1-5.15,1.51-8.25,1.51-1.42,0-2.95-.16-4.59-.47-1.62-.33-3.26-.86-4.9-1.62-1.64-.77-3.21-1.79-4.7-3.04-1.49-1.28-2.81-2.86-3.95-4.75-1.13-1.91-2.04-4.15-2.75-6.76-.69-2.59-1.04-5.59-1.04-9.02,0-4.74.64-8.83,1.93-12.29,1.28-3.48,2.97-6.34,5.06-8.62,2.09-2.28,4.5-3.99,7.21-5.1,2.69-1.13,5.48-1.67,8.38-1.67M616.3,898.82c0,3.99.47,7.23,1.44,9.76.97,2.53,2.19,4.5,3.66,5.9,1.48,1.4,3.08,2.37,4.83,2.88,1.75.51,3.39.78,4.95.78,2.57,0,4.97-.53,7.21-1.55,2.24-1.04,4.21-2.44,5.92-4.22v-26.52c-.46-.64-1.11-1.37-1.91-2.19-.82-.82-1.78-1.57-2.86-2.28-1.09-.69-2.33-1.27-3.72-1.75-1.38-.49-2.9-.73-4.54-.73-2.46,0-4.61.49-6.48,1.48-1.86.96-3.43,2.33-4.7,4.08-1.26,1.75-2.2,3.82-2.84,6.26-.64,2.44-.97,5.14-.97,8.09Z"/></g><g class="cls-8"><path class="cls-5" d="M688.71,925.17c-2.64,0-4.99-.27-7.1-.86-2.09-.56-3.94-1.37-5.52-2.39-1.58-1.04-2.93-2.28-4.03-3.71-1.11-1.44-1.99-3.02-2.62-4.72-.49-1.29-.86-2.7-1.06-4.23-.22-1.53-.33-3.2-.33-5.01v-31.11h8.27v31.06c0,2.8.38,5.15,1.13,7.05.86,2.13,2.22,3.81,4.14,5.03,1.89,1.24,4.34,1.86,7.29,1.86,3.13,0,5.65-.69,7.54-2.04,1.91-1.35,3.26-3.17,4.08-5.45.62-1.73.91-3.9.91-6.45v-31.06h8.27v31.16c0,1.69-.09,3.3-.29,4.77-.2,1.48-.51,2.84-.93,4.08-.64,1.75-1.53,3.35-2.64,4.83-1.13,1.48-2.5,2.75-4.13,3.82-1.64,1.06-3.53,1.9-5.68,2.48-2.15.58-4.59.87-7.29.87"/></g><g class="cls-8"><path class="cls-5" d="M754.39,901.59c-1.53-.42-3.35-.84-5.45-1.22-2.09-.4-4.41-.6-6.94-.64-3.52,0-6.26.75-8.27,2.24-1.98,1.49-2.99,3.79-2.99,6.89,0,1.57.25,2.93.75,4.1.49,1.18,1.18,2.15,2.06,2.91.88.77,1.9,1.33,3.1,1.71,1.18.36,2.46.56,3.81.56,1.79,0,3.44-.27,4.97-.78,1.53-.51,2.88-1.13,4.08-1.84,1.18-.71,2.2-1.42,3.04-2.13.84-.71,1.44-1.28,1.84-1.66v-10.14ZM754.81,918.23h-.2c-.67.86-1.53,1.71-2.57,2.55-1.04.82-2.22,1.57-3.57,2.24-1.35.65-2.84,1.18-4.43,1.57-1.6.4-3.31.58-5.14.58-2.44,0-4.7-.36-6.74-1.09-2.06-.73-3.81-1.78-5.28-3.2-1.48-1.4-2.62-3.12-3.44-5.14-.82-2.04-1.24-4.33-1.24-6.88s.46-4.79,1.37-6.78c.91-2,2.19-3.68,3.83-5.08,1.62-1.39,3.59-2.44,5.88-3.19,2.29-.75,4.83-1.13,7.61-1.13,2.62.04,5.06.27,7.3.69,2.24.44,4.24.96,5.97,1.6h.22v-3.52c0-1.38-.09-2.62-.27-3.68-.16-1.08-.47-2.02-.91-2.84-.91-1.71-2.39-3.11-4.43-4.24-2.02-1.11-4.75-1.68-8.21-1.68-2.55,0-4.97.24-7.23.73-2.26.47-4.5,1.15-6.74,1.99v-6.92c.84-.44,1.86-.84,3.01-1.2,1.16-.38,2.37-.69,3.66-.96,1.28-.27,2.62-.47,4.04-.62,1.44-.14,2.86-.2,4.28-.2,5.12,0,9.31.89,12.57,2.71,3.24,1.82,5.59,4.21,7.01,7.19.53,1.15.91,2.41,1.15,3.77.24,1.37.35,2.88.35,4.52v33.82h-6.94l-.91-5.61Z"/></g><g class="cls-8"><path class="cls-5" d="M798.31,871.83c2.2.03,4.12.31,5.75.84,1.64.55,3.04,1.2,4.21,2,1.18.8,2.11,1.6,2.81,2.39.69.78,1.16,1.4,1.42,1.86h.22l1.69-5.76h6.25v53.68c0,3.92-.64,7.32-1.91,10.22-1.29,2.9-3.08,5.32-5.39,7.23-2.31,1.93-5.1,3.35-8.36,4.3-3.24.95-6.85,1.42-10.8,1.42-3.35,0-6.34-.31-8.96-.89-2.64-.58-4.7-1.29-6.19-2.11v-6.98c1.2.49,2.39.91,3.52,1.26,1.15.33,2.31.62,3.53.84,1.2.24,2.44.4,3.7.51,1.28.11,2.66.16,4.19.16,5.94,0,10.49-1.38,13.66-4.15,3.17-2.79,4.75-7.01,4.75-12.71v-6.78h-.16c-1.8,2-3.92,3.5-6.32,4.52-2.4,1-5.15,1.51-8.25,1.51-1.42,0-2.95-.16-4.59-.47-1.62-.33-3.26-.86-4.9-1.62-1.64-.77-3.21-1.79-4.7-3.04-1.49-1.28-2.81-2.86-3.95-4.75-1.13-1.91-2.04-4.15-2.75-6.76-.69-2.59-1.04-5.59-1.04-9.02,0-4.74.64-8.83,1.93-12.29,1.28-3.48,2.97-6.34,5.06-8.62,2.09-2.28,4.5-3.99,7.21-5.1,2.69-1.13,5.48-1.67,8.38-1.67M784.37,898.82c0,3.99.47,7.23,1.44,9.76.97,2.53,2.19,4.5,3.66,5.9,1.48,1.4,3.08,2.37,4.83,2.88,1.75.51,3.39.78,4.95.78,2.57,0,4.97-.53,7.21-1.55,2.24-1.04,4.21-2.44,5.92-4.22v-26.52c-.46-.64-1.11-1.37-1.91-2.19-.82-.82-1.78-1.57-2.86-2.28-1.09-.69-2.33-1.27-3.72-1.75-1.38-.49-2.9-.73-4.54-.73-2.46,0-4.61.49-6.48,1.48-1.86.96-3.43,2.33-4.7,4.08-1.26,1.75-2.2,3.82-2.84,6.26-.64,2.44-.97,5.14-.97,8.09Z"/></g><g class="cls-8"><path class="cls-5" d="M861.06,917.98c2.75,0,5.25-.22,7.5-.67,2.26-.44,4.52-1.07,6.76-1.9v6.89c-1.82.89-4.06,1.58-6.74,2.11-2.66.51-5.52.76-8.58.76-3.62,0-7.03-.46-10.22-1.38-3.19-.93-5.97-2.42-8.36-4.48-2.39-2.06-4.26-4.75-5.63-8.09-1.37-3.31-2.06-7.34-2.06-12.04s.64-8.63,1.93-12.02c1.28-3.41,2.99-6.23,5.12-8.51,2.13-2.28,4.59-3.99,7.36-5.14,2.79-1.13,5.68-1.69,8.71-1.69,2.84,0,5.5.46,7.98,1.4,2.48.95,4.61,2.42,6.43,4.46,1.82,2.02,3.24,4.64,4.3,7.83,1.04,3.21,1.57,7.05,1.57,11.53v1.09c0,.31-.02,1-.05,2.06h-34.79c0,3.24.49,5.99,1.47,8.25.97,2.26,2.31,4.08,3.99,5.5,1.69,1.4,3.68,2.42,5.96,3.06,2.28.64,4.74.97,7.36.97M856.52,878.91c-1.88,0-3.62.38-5.24,1.13-1.62.75-3.04,1.75-4.24,3.04-1.22,1.28-2.19,2.79-2.93,4.5-.75,1.73-1.22,3.57-1.38,5.52h25.61c0-1.99-.25-3.84-.78-5.57-.51-1.71-1.27-3.22-2.26-4.5-1-1.29-2.22-2.29-3.68-3.02-1.46-.73-3.15-1.09-5.08-1.09Z"/></g><g class="cls-8"><path class="cls-5" d="M896.37,886.65c0,1.39.31,2.53.91,3.43.6.87,1.42,1.6,2.44,2.15,1,.55,2.19,1,3.51,1.37,1.33.35,2.71.67,4.14.97,1.95.42,3.81.89,5.56,1.4,1.73.53,3.35,1.29,4.83,2.33,1.48,1.02,2.66,2.42,3.57,4.19.91,1.75,1.37,4.04,1.37,6.85,0,2.57-.51,4.83-1.49,6.81-1,1.97-2.41,3.63-4.23,4.96-1.8,1.33-3.97,2.35-6.5,3.04-2.53.69-5.3,1.04-8.32,1.04-1.86,0-3.53-.09-5.05-.29-1.51-.2-2.84-.44-4.01-.75-1.15-.29-2.13-.62-2.95-.93-.82-.33-1.49-.62-2.04-.91v-6.94c2.15.86,4.26,1.53,6.36,2.02,2.09.51,4.41.76,6.94.76,1.99,0,3.79-.18,5.39-.55,1.6-.35,2.97-.88,4.13-1.57,1.15-.69,2.04-1.57,2.66-2.62.62-1.04.95-2.26.95-3.64s-.29-2.6-.86-3.53c-.58-.93-1.35-1.69-2.29-2.29-.96-.6-2.08-1.09-3.33-1.49-1.28-.38-2.6-.75-3.99-1.06-1.8-.4-3.64-.86-5.52-1.4-1.86-.53-3.57-1.27-5.1-2.24-1.53-.95-2.77-2.26-3.7-3.92-.95-1.66-1.42-3.77-1.42-6.38s.47-4.97,1.44-6.94c.97-1.95,2.26-3.57,3.9-4.86,1.64-1.27,3.53-2.24,5.7-2.88,2.18-.64,4.48-.95,6.88-.95,2.82,0,5.43.25,7.83.78,2.39.55,4.57,1.22,6.54,2.04v7.05c-2.15-.82-4.3-1.49-6.49-2.01-2.2-.53-4.44-.8-6.76-.84-1.95,0-3.62.2-5.01.58-1.4.4-2.53.95-3.43,1.64-.89.69-1.53,1.51-1.95,2.46-.4.93-.62,1.97-.62,3.12"/></g><path class="cls-5" d="M770.7,248.13c-8.46-48.07-34.98-92.08-76.7-127.26-41.23-34.78-96.32-59.28-151.12-67.21-44.42-6.43-90.47-4.36-133.16,5.99-43.21,10.47-81.5,28.77-113.8,54.36-34.93,27.68-60.4,62.11-73.64,99.58-13.84,39.16-13.1,78.71,2.09,111.35,9.69,20.85,24.65,37.85,44.46,50.54,16.09,10.3,34.89,17.35,55.96,20.97,6.54,10.93,14.87,20.73,24.84,29.18,12.91,10.96,28.61,19.57,45.41,24.9,16.13,5.11,34.36,7.33,51.4,6.24,11.18-.71,21.72-2.78,31.42-6.16,6.31,5.53,13.39,10.39,21.13,14.48,9.29,4.92,19.22,8.59,29.57,10.96,4.96,8.54,14,20.73,28.93,30.37,13.95,9.01,29.48,13.56,46.2,13.56,1.7,0,3.42-.05,5.16-.14,3.14-.17,6.14-.99,8.94-2.44,5.16-2.7,8.96-7.23,10.7-12.78s1.22-11.44-1.47-16.59c-3.17-6.08-4.91-11.18-5.47-16.07-.1-.81-.17-1.64-.2-2.48,22.36-2.42,43.43-9.83,60.14-21.24,19.59-13.39,32.86-31.64,38.59-53,20.72-13.36,35.78-32.29,44.79-56.33,9.71-25.93,11.73-57.32,5.83-90.78ZM754.64,335.09c-8.31,22.18-22.77,40.64-44.12,53.24-4.64,21.75-17.58,38.87-35.2,50.91-17.86,12.21-40.61,19.08-64.17,20.09-.81,5.02-.95,9.57-.45,13.9.76,6.53,3,12.87,6.64,19.85,2.77,5.32.71,11.88-4.6,14.66-1.44.74-2.96,1.14-4.47,1.21v.02c-18.04.98-33.04-4.06-44.88-11.7-13.24-8.55-22.52-20.47-27.66-30.86-11.09-2.04-21.86-5.76-31.65-10.95-8.85-4.68-16.92-10.56-23.77-17.49-10.82,4.66-22.66,7.17-34.58,7.93-16.47,1.05-33.16-1.24-47.41-5.76-15.19-4.81-29.49-12.49-41.65-22.82-10.02-8.5-18.58-18.81-25-30.81-22.37-3.18-41.4-10.23-56.97-20.21-18.39-11.77-31.93-27.59-40.46-45.94-14-30.1-14.54-66.78-1.69-103.13,11.88-33.6,35.29-67.05,70.13-94.66,32.1-25.45,69.85-42.68,109.59-52.31,42.21-10.24,86.69-11.92,129.04-5.8,51.34,7.43,104.42,29.98,145.64,64.75,36.91,31.13,64.42,72.08,73,120.83,5.42,30.76,4.01,60.16-5.31,85.05Z"/><path class="cls-7" d="M600.4,457.59c-.97,6.02-1.14,11.54-.52,16.89.48,4.09,1.42,8.15,2.87,12.35,0,.01,0,.02.01.03,1.24,3.91,2.85,7.66,4.79,11.22-14.03.78-26.84-2.63-38.23-9.99-7.79-5.02-14.79-12.02-19.94-19.82-.17-.26-.34-.53-.5-.79-2.11-3.43-3.92-7.08-5.37-10.9-1.84-.23-3.66-.51-5.45-.84-.11-.03-.23-.05-.34-.07-10.06-1.85-19.66-5.16-28.53-9.85-8.02-4.25-15.12-9.48-21.11-15.53-.18-.18-.36-.35-.55-.51-.03-.02-.05-.05-.08-.08-11.95-12.4-19.07-28.07-19.07-45.11,0-40.23,39.75-72.84,88.77-72.84s88.78,32.61,88.78,72.84c0,26.51-17.25,49.7-43.04,62.44-1.09,3.35-1.92,6.81-2.45,10.37-.01.02-.01.05-.02.07-.01.04-.01.08-.02.12Z"/><path class="cls-4" d="M751.44,275.14c-6.11-14.15-16.02-26.79-28.72-37.1-21.44-17.41-50.91-28.18-83.32-28.18s-59.97,10.08-81.2,26.5c-3.3,2.55-6.41,5.25-9.34,8.09-1.75-5.66-4-11.17-6.73-16.5,4.33-4.72,8-10.07,10.84-15.9,18.62-3.45,35.05-11.85,47.15-23.45,13.62-13.05,21.86-30.12,21.86-48.89s-8.07-35.47-21.43-48.46c29.2,11.21,56.59,27.05,79.39,46.29,37.76,31.85,61.72,71.4,69.29,114.37.25,1.41.48,2.82.7,4.22.05.25.08.5.11.75.79,6.03,1.26,12.14,1.4,18.26Z"/><path class="cls-4" d="M497.98,72.02c-9.57,3.6-18.24,8.58-25.63,14.64-16.41,13.47-26.56,32.22-26.56,53.05,0,5.87.81,11.59,2.35,17.06-18.61-5.47-38.85-8.49-60.02-8.49-58.2,0-109.36,22.73-138.75,57.04,1.8-3.95,3.77-7.89,5.9-11.79.06-.12.12-.23.19-.34,12.9-22.92,31.21-44.03,54-62.08,21.43-16.98,45.77-30.5,72.67-40.37,1-.37,2.01-.73,3.01-1.08,1.15-.41,2.31-.8,3.47-1.2,1.18-.4,2.37-.79,3.56-1.18,33.94-10.97,70.09-15.91,105.81-15.26Z"/><path class="cls-1" d="M539.23,254.74c-11.72,15.05-18.61,32.93-18.87,52.12-31.09,10.6-55.41,33.59-61.4,62.14-3.2,12.58-.96,28.48,4.89,42.24,2.53,6.2,5.89,12.07,9.99,17.51-6.59,2.53-13.41,4.31-20.34,5.38-.13.02-.25.04-.38.05-2.63.38-5.32.65-8.07.83-12.06.76-24.83-.42-36.64-3.37-30.21-7.86-57.05-27.69-69.43-55.2-15.55-1.78-29.52-5.37-41.79-10.57-.14-.05-.27-.11-.4-.17-.61-.26-1.2-.52-1.8-.79-5.07-2.29-9.87-4.89-14.4-7.79-16.05-10.29-28.2-23.96-36.12-40.68-6.28-13.65-9.53-29.18-9.53-46.18,0-57.81,68.58-109.87,153.18-109.87,24.12,0,46.93,4.84,67.23,12.93.73,1.22,1.51,2.41,2.32,3.59,6.8,9.86,16.23,18.28,27.47,24.56.26,1.09.48,2.18.65,3.26.35,2.25.54,4.71.54,7.39,0,4.01-.5,7.9-1.45,11.6-.98,3.84-2.42,7.46-4.26,10.81l-7.82,14.26,16.26.85c.32.02.9.04,1.77.06h.04c1.49.05,1.43.07,1.78.07,14.09,0,27.21-4.39,38.05-11.87.48-.33.96-.66,1.43-1.01,3.16,5.91,5.56,11.9,7.1,17.85Z"/><g class="cls-9"><path class="cls-6" d="M611.74,139.71c0,31.94-28.58,58.41-65.89,63.13-8.16,21.45-28.9,36.69-53.2,36.69-1.03,0-2.05-.03-3.07-.08,4.45-8.12,6.99-17.43,6.99-27.33,0-6.16-.98-12.09-2.79-17.64-22.62-11.18-37.75-31.52-37.75-54.77,0-35.28,34.85-63.88,77.85-63.88s77.86,28.6,77.86,63.88Z"/></g><path class="cls-2" d="M748.13,308.39c0,7.88-1.27,15.52-3.66,22.79,0,.03,0,.06-.03.08-3.78,10.09-8.86,19.09-15.2,26.89-.04.05-.08.09-.12.14-7.69,9.1-17.43,16.97-28.66,23.17-4.51,35.94-37.91,61.56-81.87,66.34l.03-.2c22.82-15.04,37.47-38.31,37.47-64.42,0-45.36-44.18-82.13-98.68-82.13-9.22,0-18.14,1.06-26.61,3.03,2.78-46.77,50.34-83.99,108.6-83.99s108.73,39.54,108.73,88.3Z"/></svg>